<svg width="124" height="124" viewBox="0 0 124 124" fill="none" xmlns="http://www.w3.org/2000/svg">
<path d="M53.1302 68.0988L27.7735 47.9045L16.5376 57.0527L60.3804 102.325C67.9596 82.7257 91.8739 44.3743 121.077 17.1322L118.395 10.8563C86.5849 30.6584 63.5184 55.5596 53.1302 68.0988ZM122.684 49.2457H116.396C117.357 53.3453 117.863 57.6094 117.863 62C117.863 92.8482 92.8482 117.863 62 117.863C31.1392 117.863 6.13673 92.8482 6.13673 62C6.13673 31.1518 31.1518 6.13673 62 6.13673C69.5159 6.13673 76.6776 7.61714 83.2192 10.3122V3.73265C76.4371 1.25265 69.3135 0 62 0C53.6363 0 45.5131 1.6449 37.858 4.87143C30.4686 7.99674 23.851 12.4633 18.1571 18.1571C12.4633 23.851 7.99674 30.4812 4.87143 37.858C1.6449 45.5131 0 53.6363 0 62C0 70.3637 1.6449 78.4869 4.87143 86.142C7.99674 93.5314 12.4633 100.162 18.1571 105.843C23.851 111.537 30.4812 116.003 37.858 119.129C45.5131 122.355 53.6363 124 62 124C70.3637 124 78.4869 122.355 86.142 119.129C93.5314 116.003 100.162 111.537 105.843 105.843C111.524 100.149 116.003 93.5188 119.129 86.142C122.355 78.4869 124 70.3637 124 62C124 57.6727 123.557 53.4086 122.684 49.2457Z" fill="#29B458"/>
</svg>
