<svg width="14" height="7" viewBox="0 0 14 7" fill="none" xmlns="http://www.w3.org/2000/svg">
<path d="M13.9258 6.32177C13.9088 6.28975 13.893 6.26319 13.8783 6.24192C13.6354 5.85854 13.1712 5.38797 12.4861 4.83007L12.4716 4.8173L12.4643 4.81103L12.457 4.80461H12.4497C12.1387 4.54482 11.9418 4.37015 11.8593 4.28072C11.7084 4.11037 11.6746 3.93793 11.7571 3.76321C11.8154 3.6312 12.0342 3.35242 12.4131 2.92649C12.6125 2.70076 12.7703 2.51984 12.8869 2.38354C13.7276 1.40401 14.0921 0.77807 13.9803 0.505488L13.9369 0.441789C13.9077 0.40344 13.8324 0.368357 13.711 0.336362C13.5894 0.304435 13.434 0.299155 13.2444 0.320432L11.1452 0.333141C11.1111 0.32258 11.0626 0.323564 10.9993 0.336362C10.9361 0.34916 10.9045 0.355582 10.9045 0.355582L10.868 0.371579L10.839 0.390798C10.8147 0.403507 10.788 0.425859 10.7588 0.457809C10.7297 0.489647 10.7055 0.527011 10.6861 0.569589C10.4575 1.08488 10.1977 1.56398 9.90602 2.00685C9.7262 2.27093 9.56107 2.49979 9.41026 2.69358C9.25966 2.88729 9.13331 3.03001 9.03134 3.1215C8.92921 3.21308 8.83705 3.28644 8.75428 3.34186C8.67163 3.39731 8.60855 3.42073 8.56486 3.41216C8.52108 3.40359 8.47985 3.39509 8.44081 3.38659C8.37282 3.34824 8.31814 3.29609 8.2769 3.23008C8.23549 3.16408 8.20761 3.081 8.19304 2.98093C8.17853 2.88078 8.16996 2.79464 8.1675 2.72222C8.16523 2.64988 8.16628 2.54756 8.17121 2.41556C8.17626 2.28348 8.17853 2.19412 8.17853 2.14727C8.17853 1.98542 8.18213 1.80976 8.18936 1.62025C8.19671 1.43074 8.20266 1.28059 8.20764 1.16997C8.21259 1.05924 8.21489 0.942094 8.21489 0.81859C8.21489 0.695085 8.20631 0.598228 8.18936 0.527929C8.17261 0.457719 8.1469 0.389568 8.11302 0.323497C8.07894 0.257494 8.02905 0.206437 7.96359 0.170191C7.898 0.13399 7.81646 0.105261 7.71941 0.0839165C7.46184 0.0328366 7.13384 0.00520473 6.73528 0.000908917C5.83147 -0.00759321 5.25072 0.0435537 4.99317 0.154283C4.89112 0.201067 4.79878 0.264989 4.71621 0.345849C4.62872 0.439574 4.61651 0.490721 4.67968 0.499134C4.97129 0.537416 5.17773 0.628992 5.29923 0.773774L5.34302 0.850495C5.37707 0.905848 5.41108 1.00385 5.44511 1.14436C5.47909 1.28486 5.50103 1.4403 5.51068 1.61056C5.53493 1.92149 5.53493 2.18766 5.51068 2.40907C5.48635 2.63057 5.46337 2.80301 5.44144 2.92651C5.41951 3.05002 5.38672 3.1501 5.34302 3.22673C5.29923 3.30338 5.2701 3.35023 5.2555 3.36724C5.24092 3.38424 5.22877 3.39496 5.21912 3.39916C5.15595 3.42037 5.09026 3.43118 5.02227 3.43118C4.95418 3.43118 4.87162 3.40133 4.77445 3.34168C4.6773 3.28204 4.57648 3.2001 4.47198 3.09575C4.36749 2.99137 4.24964 2.84552 4.11838 2.65816C3.98723 2.4708 3.85115 2.24936 3.71023 1.99385L3.59363 1.80855C3.52074 1.68934 3.42117 1.51576 3.29481 1.28797C3.16839 1.06009 3.05664 0.839666 2.95949 0.626732C2.92066 0.537303 2.86232 0.46922 2.78458 0.422368L2.7481 0.403149C2.72385 0.386145 2.68491 0.368089 2.6315 0.348847C2.57801 0.329628 2.5222 0.315845 2.46384 0.307366L0.466599 0.320074C0.262507 0.320074 0.124028 0.360593 0.0511125 0.44152L0.0219309 0.479802C0.00735285 0.501125 0 0.535178 0 0.582052C0 0.628903 0.014578 0.686404 0.0437596 0.754488C0.33532 1.35501 0.652386 1.93416 0.994957 2.49203C1.33753 3.04991 1.63522 3.49929 1.88784 3.83977C2.14052 4.18051 2.39807 4.50209 2.6605 4.80436C2.92293 5.10675 3.09665 5.30053 3.18164 5.38566C3.26673 5.47095 3.33357 5.53472 3.38216 5.5773L3.56442 5.73058C3.68104 5.83281 3.8523 5.95524 4.07828 6.09787C4.3043 6.2406 4.55453 6.3811 4.82908 6.51962C5.10369 6.65792 5.42316 6.77077 5.78766 6.85805C6.15211 6.94542 6.50683 6.98048 6.85188 6.96357H7.69016C7.86017 6.9507 7.98897 6.90385 8.07651 6.82299L8.10552 6.79097C8.12502 6.76556 8.14328 6.72607 8.16013 6.67293C8.17718 6.6197 8.18566 6.56106 8.18566 6.49727C8.18068 6.31418 8.19658 6.14918 8.23294 6.00227C8.26927 5.8554 8.31068 5.74468 8.35699 5.6701C8.40328 5.5956 8.45552 5.53273 8.51365 5.48176C8.57191 5.43068 8.61342 5.39974 8.63778 5.38909C8.66198 5.37837 8.68131 5.3711 8.69589 5.36673C8.81251 5.33268 8.94977 5.36566 9.10785 5.46583C9.26581 5.56591 9.41396 5.68948 9.55255 5.83634C9.69105 5.98334 9.85746 6.14826 10.0518 6.33134C10.2463 6.5145 10.4163 6.65064 10.562 6.74021L10.7078 6.81686C10.8051 6.86801 10.9314 6.91486 11.087 6.95744C11.2422 6.99999 11.3782 7.01064 11.495 6.98936L13.361 6.96386C13.5456 6.96386 13.6892 6.93708 13.7911 6.88394C13.8931 6.83071 13.9538 6.77207 13.9733 6.70828C13.9928 6.64442 13.9939 6.57198 13.977 6.49098C13.9597 6.41019 13.9427 6.3537 13.9258 6.32177Z" fill="white"/>
</svg>
